<?xml version="1.0" encoding="UTF-8"?>
<svg id="Livello_2"
    xmlns="http://www.w3.org/2000/svg" viewBox="0 0 311.96 311.95">
    <g id="Livello_1-2">
        <g>
            <polygon points="160.4 198.92 158.28 195.23 156.39 191.98 156.19 191.62 156 191.72 155.97 191.75 155.97 192.05 154.03 195.39 151.95 198.99 148.51 204.95 138.34 222.56 138.34 311.95 174 311.95 174 222.45 163.68 204.58 160.4 198.92"/>
            <path d="m311.96,137.95h-89.49l-17.89,10.32-5.64,3.27-3.7,2.13-3.24,1.86h0s3.24-5.6,3.24-5.6l1.39-2.4,1.66-2.9-3.05-1.75-1.95-1.13-6.33-3.65h-.01s.02,0,.02,0l.27-.15h35.24l77.41-44.69-17.83-30.89-77.51,44.76-10.32,17.88-3.25,5.65-2.15,3.69-1.86,3.24-.11.19.11-.2v-12.58h-13.07l.15-.26,3.34-1.94,3.6-2.07,5.99-3.45,17.58-10.16,44.71-77.43-30.87-17.82-44.76,77.51v35.2l-3.26-5.64-1.39-2.4-1.66-2.88-3.03,1.75-1.95,1.13-6.32,3.65v-.31l1.94-3.34,2.07-3.59,3.45-5.98,10.16-17.6V0h-35.65v89.49l10.32,17.88,3.27,5.66,2.13,3.68,1.86,3.25-5.61-3.25-2.38-1.37-2.88-1.65s-.02,0-.02,0l-1.74,3.02-1.15,1.97-3.65,6.33v.02l-.12.19h0s.12-.19.12-.19h0s-.13-.24-.13-.24v-35.29L93.26,12.07l-30.87,17.82,44.74,77.51,17.88,10.32,5.66,3.28,3.7,2.12,3.24,1.89h-12.61v13.08l-.26-.16-1.94-3.34-2.07-3.6-3.44-5.98-10.17-17.61L29.72,62.72l-17.82,30.87,77.51,44.75h35.6s-.41,0-.41,0l-5.64,3.26-2.38,1.37-2.9,1.68,1.75,3.03,1.15,1.97,3.63,6.3h-.29l-3.34-1.93-3.6-2.08-5.97-3.44-17.6-10.17H0v35.66h89.49l17.88-10.32,5.66-3.28,3.7-2.12,3.26-1.89-3.26,5.64-1.37,2.38-1.68,2.9,3.05,1.77,1.95,1.13,6.31,3.63-.26.16h-35.24L12.08,218.68l17.83,30.89,77.51-44.75,10.32-17.88,3.27-5.66,2.13-3.67,1.87-3.24.22-.39-.14-.08.14.08-.22.39v12.56h13.34v.41l3.27,5.66,1.37,2.38,1.66,2.88,3.03-1.75,1.97-1.13,6.31-3.63.03-.03.19-.1.21.36,5.64,3.26,2.38,1.37,2.9,1.66,1.75-3.03,1.15-1.97,3.65-6.32h0s.14.22.14.22v35.29l44.7,77.43,30.87-17.83-44.74-77.49-17.87-10.34-5.66-3.27-3.7-2.13-3.26-1.88-.26-.15.26.15h12.62v-13.32h.39l5.66-3.27,2.38-1.37,2.9-1.68-1.77-3.03-1.13-1.97-3.63-6.31-.02-.02-.12-.21.22-.13-.22.13.12.2.02.02h.25l3.38,1.95,3.6,2.08,5.96,3.44,17.62,10.17h89.39v-35.67Zm-155.98,18.05h0s0,0,0,0h0Zm0-.05h0s0,0,0,0h0Zm-.01-.01v.03h0s0-.03,0-.03h0Zm-.31-35.79l.12.2.15-.08-.15.08-.12-.2Zm.27,35.84h0s.04,0,.04,0v.04h0s0-.04,0-.04h-.03Zm.06.02h.01s-.01,0-.01,0Zm.01-.02h0s.02-.02.02-.02h0l-.03.02Zm30.73-18h.02s-.02,0-.02,0h0Z"/>
            <polygon points="186.96 173.62 186.96 173.86 187.21 174.01 189.15 177.36 191.22 180.95 194.67 186.94 204.83 204.56 282.24 249.24 300.07 218.36 222.57 173.62 187.35 173.62 186.96 173.62"/>
            <polygon points="138.34 186.94 138.12 186.94 138.09 186.94 137.95 187.19 134.59 189.13 130.99 191.21 125.01 194.65 107.42 204.82 62.72 282.24 93.59 300.07 138.34 222.56 138.34 187.35 138.34 186.94"/>
        </g>
    </g>
</svg>
